<?xml version="1.0" standalone="no"?><!DOCTYPE svg PUBLIC "-//W3C//DTD SVG 1.1//EN" "http://www.w3.org/Graphics/SVG/1.1/DTD/svg11.dtd"><svg t="1740987347771" class="icon" viewBox="0 0 1024 1024" version="1.1" xmlns="http://www.w3.org/2000/svg" p-id="52458" xmlns:xlink="http://www.w3.org/1999/xlink" width="200" height="200"><path d="M789.333333 42.666667c106.666667 0 192 85.333333 192 192 0 49.066667-19.2 98.133333-53.333333 132.266666 21.333333 53.333333 32 108.8 32 166.4 0 247.466667-200.533333 448-448 448S64 780.8 64 533.333333c0-57.6 10.666667-113.066667 32-166.4C61.866667 332.8 42.666667 283.733333 42.666667 234.666667c0-106.666667 85.333333-192 192-192 55.466667 0 106.666667 23.466667 142.933333 64 87.466667-27.733333 181.333333-27.733333 268.8 0C682.666667 66.133333 733.866667 42.666667 789.333333 42.666667z m49.066667 332.8c-8.533333-19.2-4.266667-40.533333 12.8-53.333334 27.733333-21.333333 44.8-53.333333 44.8-87.466666 0-59.733333-46.933333-106.666667-106.666667-106.666667-38.4 0-70.4 19.2-91.733333 51.2-10.666667 17.066667-32 25.6-51.2 17.066667-85.333333-34.133333-181.333333-34.133333-268.8 0-19.2 8.533333-40.533333 0-51.2-17.066667C307.2 147.2 273.066667 128 234.666667 128c-57.6 0-106.666667 46.933333-106.666667 106.666667 0 34.133333 17.066667 66.133333 44.8 87.466666 17.066667 12.8 23.466667 34.133333 12.8 53.333334C162.133333 424.533333 149.333333 477.866667 149.333333 533.333333c0 200.533333 162.133333 362.666667 362.666667 362.666667s362.666667-162.133333 362.666667-362.666667c0-55.466667-12.8-108.8-36.266667-157.866666z" fill="#2c2c2c" p-id="52459"></path><path d="M588.8 597.333333h-153.6c-10.666667 0-17.066667 14.933333-6.4 21.333334l44.8 32c10.666667 6.4 17.066667 17.066667 19.2 27.733333l8.533333 34.133333c2.133333 10.666667 17.066667 10.666667 19.2 0l8.533334-34.133333c4.266667-10.666667 10.666667-21.333333 19.2-27.733333L597.333333 618.666667c8.533333-6.4 4.266667-21.333333-8.533333-21.333334M661.333333 405.333333c-36.266667 0-64 27.733333-64 64s27.733333 64 64 64 64-27.733333 64-64-27.733333-64-64-64M362.666667 405.333333c-36.266667 0-64 27.733333-64 64s27.733333 64 64 64 64-27.733333 64-64-27.733333-64-64-64" fill="#2c2c2c" p-id="52460"></path></svg>