<svg width="27.048492" height="29.246582" viewBox="0 0 27.0485 29.2466" fill="none" xmlns="http://www.w3.org/2000/svg" xmlns:xlink="http://www.w3.org/1999/xlink">
	<desc>
			Created with Pixso.
	</desc>
	<defs/>
	<path id="Vector" d="M26.22 11.73C24.11 5.73 19.39 3.45 15.38 3.03C9.91 2.45 3.23 5.38 1.33 11.65C-0.53 17.53 1.85 22.63 5.32 25.41C7.93 27.51 12.77 29.71 18.09 27.88L26.22 11.73Z" fill="#2A2941" fill-opacity="1.000000" fill-rule="evenodd"/>
	<path id="Vector" d="M18.54 28.46L26.92 11.8L26.84 11.5C24.64 5.18 19.67 2.8 15.43 2.38C9.66 1.75 2.68 4.88 0.65 11.48C-1.26 17.63 1.25 23.01 4.87 25.91C7.6 28.14 12.69 30.46 18.26 28.51L18.54 28.46ZM25.51 11.68L17.61 27.36C12.67 28.96 8.15 26.88 5.69 24.91C2.43 22.26 0.22 17.43 1.93 11.85C3.74 5.9 10.08 3.13 15.3 3.7C19.04 4.05 23.48 6.18 25.51 11.68Z" fill="#2A2941" fill-opacity="1.000000" fill-rule="evenodd"/>
	<path id="Vector" d="M26.39 9.25C24.33 3.38 19.72 1.12 15.78 0.72C10.41 0.15 3.89 3.03 2.01 9.18C0.2 14.93 2.51 19.93 5.92 22.66C8.48 24.71 13.22 26.88 18.44 25.08L26.39 9.25Z" fill="#FEC34E" fill-opacity="1.000000" fill-rule="evenodd"/>
	<path id="Vector" d="M18.84 25.61L27.04 9.3L26.97 9.03C24.81 2.83 19.94 0.5 15.8 0.07C10.16 -0.55 3.34 2.53 1.33 9C-0.53 15.03 1.91 20.28 5.47 23.13C8.15 25.31 13.14 27.61 18.59 25.68L18.84 25.61ZM25.66 9.2L17.91 24.56C13.07 26.11 8.63 24.08 6.25 22.16C3.06 19.56 0.9 14.83 2.58 9.35C4.36 3.53 10.56 0.8 15.68 1.35C19.34 1.72 23.68 3.8 25.66 9.2Z" fill="#2A2941" fill-opacity="1.000000" fill-rule="evenodd"/>
	<path id="Vector" d="M8.63 20.18C10.16 19.38 10.79 17.53 9.98 16.01C9.21 14.5 7.32 13.9 5.79 14.71C4.26 15.51 3.64 17.36 4.44 18.88C5.19 20.38 7.07 20.96 8.63 20.18Z" fill="#F5F5F5" fill-opacity="1.000000" fill-rule="evenodd"/>
	<path id="Vector" d="M23.13 13.23C24.66 12.45 25.26 10.58 24.48 9.08C23.71 7.58 21.83 7 20.32 7.78C18.81 8.55 18.19 10.43 18.97 11.93C19.72 13.45 21.6 14.03 23.13 13.23Z" fill="#F5F5F5" fill-opacity="1.000000" fill-rule="evenodd"/>
	<path id="Vector" d="M21.55 10.83C17.66 13.6 13.47 15.88 8.98 17.51C10.26 19.68 13.97 21.56 17.23 20.33C21.93 18.53 22.8 14 21.55 10.83Z" fill="#F5F5F5" fill-opacity="1.000000" fill-rule="evenodd"/>
	<path id="Vector" d="M21.78 10.6L21.47 9.83L20.8 10.3C16.96 13.03 12.82 15.31 8.38 16.91L7.65 17.18L8.05 17.86C9.46 20.23 13.52 22.31 17.11 20.93C22.18 19.01 23.13 14.08 21.78 10.6ZM20.82 11.88C21.55 14.71 20.52 18.26 16.63 19.73C14 20.73 11.06 19.51 9.61 17.83C13.6 16.33 17.33 14.28 20.82 11.88Z" fill="#2A2941" fill-opacity="1.000000" fill-rule="evenodd"/>
	<path id="Vector" d="M18.44 24.91C18.44 24.91 17.61 21.53 17.74 19.83C18.11 13.63 22.8 10.63 26.37 9.23L18.44 24.91Z" fill="#FEC34E" fill-opacity="1.000000" fill-rule="evenodd"/>
	<path id="Vector" d="M17.81 25.06C17.86 25.33 18.09 25.51 18.36 25.53C18.64 25.56 18.89 25.43 19.02 25.18L26.94 9.5C27.04 9.25 27.02 8.98 26.84 8.78C26.64 8.6 26.37 8.5 26.12 8.63C22.38 10.08 17.48 13.28 17.08 19.78C16.96 21.56 17.81 25.06 17.81 25.06ZM18.66 23.01C18.49 21.98 18.29 20.73 18.36 19.86C18.66 14.91 21.93 12.1 24.96 10.55L18.66 23.01Z" fill="#2A2941" fill-opacity="1.000000" fill-rule="evenodd"/>
	<path id="Vector" d="M6.42 13.83C6.3 12.8 6.95 12 7.8 11.6C8.63 11.2 9.68 11.2 10.36 11.88L10.84 12.33L11.74 11.4L11.26 10.95C10.18 9.93 8.58 9.83 7.25 10.45C5.94 11.08 4.97 12.35 5.14 13.98L5.22 14.6L6.5 14.46L6.42 13.83Z" fill="#2A2941" fill-opacity="1.000000" fill-rule="evenodd"/>
	<path id="Vector" d="M20.4 6.43C19.22 5.28 17.61 5.23 16.31 5.88C15 6.53 14.07 7.85 14.22 9.33L14.3 9.98L15.58 9.85L15.5 9.2C15.4 8.25 16.05 7.45 16.88 7.03C17.71 6.63 18.74 6.6 19.49 7.33L19.94 7.78L20.85 6.88L20.4 6.43Z" fill="#2A2941" fill-opacity="1.000000" fill-rule="evenodd"/>
</svg>
